<?xml version="1.0" encoding="UTF-8" standalone="no"?>
<!-- Created with Inkscape (http://www.inkscape.org/) -->

<svg
   width="200mm"
   height="100mm"
   viewBox="0 0 200 100"
   version="1.1"
   id="svg37"
   inkscape:version="1.1.2 (0a00cf5339, 2022-02-04)"
   sodipodi:docname="BaseWeightLetter.svg"
   xmlns:inkscape="http://www.inkscape.org/namespaces/inkscape"
   xmlns:sodipodi="http://sodipodi.sourceforge.net/DTD/sodipodi-0.dtd"
   xmlns="http://www.w3.org/2000/svg"
   xmlns:svg="http://www.w3.org/2000/svg">
  <sodipodi:namedview
     id="namedview39"
     pagecolor="#ffffff"
     bordercolor="#666666"
     borderopacity="1.0"
     inkscape:pageshadow="2"
     inkscape:pageopacity="0.0"
     inkscape:pagecheckerboard="0"
     inkscape:document-units="mm"
     showgrid="false"
     inkscape:zoom="0.75187991"
     inkscape:cx="369.0749"
     inkscape:cy="428.25988"
     inkscape:window-width="1920"
     inkscape:window-height="1043"
     inkscape:window-x="1920"
     inkscape:window-y="0"
     inkscape:window-maximized="1"
     inkscape:current-layer="layer1"
     width="200mm" />
  <defs
     id="defs34" />
  <g
     inkscape:label="Layer 1"
     inkscape:groupmode="layer"
     id="layer1">
    <path
       d="m 22.421543,35.20265 c 0.242001,-0.96775 -0.371618,-1.93472 -1.321122,-2.17672 l -5.246703,-1.26504 c -0.986251,-0.22271 -1.953276,0.35336 -2.176727,1.32112 L 9.2679362,51.33297 c -0.242009,0.96777 0.353356,1.93472 1.3211208,2.17673 l 5.264922,1.26504 c 0.949271,0.24201 1.934719,-0.35336 2.158234,-1.32112 z"
       id="path3581"
       style="stroke:#7d7d7d;stroke-width:0.293746;stroke-miterlimit:4;stroke-dasharray:none;stroke-opacity:1" />
    <path
       d="m 25.304526,29.3852 c 1.150284,-0.80506 2.549916,-1.34202 4.06404,-1.22726 2.013231,0.17212 3.661142,1.39964 4.638516,2.91377 l 5.866571,11.63634 7.994568,5.50199 c 0.689763,0.51766 1.092661,1.38034 1.035053,2.28161 -0.115273,1.45644 -1.380343,2.53062 -2.836788,2.41539 -0.422209,-0.0383 -0.767478,-0.19141 -1.188933,-0.38361 l -8.722917,-6.01966 c -0.26835,-0.21071 -0.49836,-0.47905 -0.651438,-0.76667 l -2.204633,-4.35172 -2.626082,11.59829 10.313812,12.1731 c 0.211502,0.38361 0.383616,0.80507 0.45976,1.24655 l 2.799265,14.72202 c -0.0193,0.32597 0.03755,0.51765 0.01853,0.80579 -0.172113,2.16558 -2.070106,3.77638 -4.236414,3.60353 -1.783241,-0.13378 -3.124456,-1.47574 -3.546651,-3.1059 l -2.646181,-13.78335 -8.357738,-9.18224 -1.954813,8.93322 c -0.05685,0.42143 -0.613619,1.30336 -0.785971,1.66794 l -8.032611,13.55304 c -0.805064,1.24575 -2.147018,2.03252 -3.680438,1.91702 -2.1663068,-0.17211 -3.7956618,-2.0701 -3.6228228,-4.23641 0.03833,-0.61363 0.306943,-1.24656 0.536693,-1.68724 l 7.4771698,-12.55697 6.211058,-27.60544 -4.06404,3.27827 -2.147018,9.85384 c -0.287647,1.24575 -1.437951,2.28161 -2.799265,2.16631 -1.457248,-0.11527 -2.53062,-1.36104 -2.415389,-2.81829 0.0193,-0.11527 0.0193,-0.23001 0.05763,-0.34528 l 2.569213,-11.4828 c 0.13378,-0.49834 0.42142,-0.93958 0.805057,-1.26584 z"
       id="path3685"
       style="stroke:#7d7d7d;stroke-width:0.287069;stroke-miterlimit:4;stroke-dasharray:none;stroke-opacity:1" />
    <a
       id="a3931"
       style="stroke:#7d7d7d;stroke-width:4;stroke-miterlimit:4;stroke-dasharray:none;stroke-opacity:1"
       transform="matrix(0.06676043,0,0,0.06676043,-12.839712,15.37285)">
      <path
         d="m 645.15,174 c 47.965,3.7305 89.879,-32.16 93.625,-79.836 3.7305,-48.238 -32.172,-89.879 -80.125,-93.898 -47.664,-3.7305 -89.594,32.16 -93.613,80.113 -3.7305,47.949 32.164,89.879 80.113,93.621 z"
         id="path3683"
         style="stroke:#7d7d7d;stroke-width:4;stroke-miterlimit:4;stroke-dasharray:none;stroke-opacity:1" />
    </a>
    <text
       xml:space="preserve"
       style="font-style:normal;font-weight:normal;font-size:25.4px;line-height:1.25;font-family:sans-serif;fill:#000000;fill-opacity:1;stroke:none;stroke-width:0.186403"
       x="50.527637"
       y="54.183823"
       id="text24055"><tspan
         sodipodi:role="line"
         id="tspan24053"
         style="font-style:normal;font-variant:normal;font-weight:bold;font-stretch:normal;font-size:25.4px;font-family:'Nimbus Sans';-inkscape-font-specification:'Nimbus Sans Bold';stroke-width:0.186403"
         x="50.527637"
         y="54.183823"
         dy="0">BaseWeight</tspan></text>
  </g>
</svg>
