<svg xmlns="http://www.w3.org/2000/svg" width="1600" height="1600" viewBox="0 0 1200 1200"><path d="M528.176 297.03c3.625-14.497-5.566-28.98-19.79-32.606l-78.59-18.949c-14.772-3.336-29.257 5.293-32.604 19.79l-66.043 273.38c-3.625 14.495 5.293 28.98 19.789 32.604L429.8 590.2c14.219 3.624 28.98-5.294 32.328-19.79z" style="stroke-width:4.4;stroke-miterlimit:4;stroke-dasharray:none;stroke:#7d7d7d;stroke-opacity:1"/><path d="M571.36 209.89c17.23-12.059 38.195-20.102 60.875-18.383 30.156 2.578 54.84 20.965 69.48 43.645l87.875 174.3 119.75 82.414c10.332 7.754 16.367 20.676 15.504 34.176-1.727 21.816-20.676 37.906-42.492 36.18-6.324-.574-11.496-2.867-17.809-5.746l-130.66-90.168c-4.02-3.156-7.465-7.176-9.758-11.484l-33.023-65.184-39.336 173.73 154.49 182.34c3.168 5.746 5.746 12.059 6.887 18.672l41.93 220.52c-.29 4.883.562 7.754.277 12.07-2.578 32.438-31.008 56.566-63.457 53.977-26.71-2.004-46.8-22.105-53.125-46.523l-39.637-206.46-125.19-137.54-29.28 133.81c-.852 6.312-9.192 19.523-11.774 24.984l-120.32 203.01c-12.059 18.66-32.16 30.445-55.129 28.715-32.449-2.578-56.855-31.008-54.266-63.457.574-9.191 4.598-18.672 8.04-25.273l112-188.09 93.034-413.5-60.875 49.105-32.16 147.6c-4.308 18.66-21.539 34.176-41.93 32.449-21.828-1.727-37.906-20.387-36.18-42.215.29-1.727.29-3.445.864-5.172l38.484-172c2.004-7.465 6.312-14.074 12.059-18.961z" style="stroke:#7d7d7d;stroke-width:4.3;stroke-miterlimit:4;stroke-dasharray:none;stroke-opacity:1"/><a style="stroke:#7d7d7d;stroke-opacity:1;stroke-width:4;stroke-miterlimit:4;stroke-dasharray:none"><path d="M645.15 174c47.965 3.73 89.879-32.16 93.625-79.836 3.73-48.238-32.172-89.879-80.125-93.898-47.664-3.73-89.594 32.16-93.613 80.113-3.73 47.949 32.164 89.879 80.113 93.621z" style="stroke:#7d7d7d;stroke-opacity:1;stroke-width:4;stroke-miterlimit:4;stroke-dasharray:none"/></a></svg>