<?xml version="1.0" encoding="UTF-8" standalone="no"?>
<svg
   width="1200pt"
   height="1200pt"
   version="1.1"
   viewBox="0 0 1200 1200"
   id="svg3689"
   sodipodi:docname="BaseWeightMascot.svg"
   inkscape:version="1.1.2 (0a00cf5339, 2022-02-04)"
   xmlns:inkscape="http://www.inkscape.org/namespaces/inkscape"
   xmlns:sodipodi="http://sodipodi.sourceforge.net/DTD/sodipodi-0.dtd"
   xmlns="http://www.w3.org/2000/svg"
   xmlns:svg="http://www.w3.org/2000/svg">
  <defs
     id="defs3693" />
  <sodipodi:namedview
     id="namedview3691"
     pagecolor="#ffffff"
     bordercolor="#666666"
     borderopacity="1.0"
     inkscape:pageshadow="2"
     inkscape:pageopacity="0.0"
     inkscape:pagecheckerboard="0"
     inkscape:document-units="pt"
     showgrid="false"
     inkscape:zoom="0.38917153"
     inkscape:cx="1161.4416"
     inkscape:cy="713.0532"
     inkscape:window-width="1850"
     inkscape:window-height="1016"
     inkscape:window-x="1990"
     inkscape:window-y="27"
     inkscape:window-maximized="1"
     inkscape:current-layer="layer2" />
  <g
     inkscape:groupmode="layer"
     id="layer1"
     inkscape:label="Pack">
    <path
       d="m 528.17593,297.02921 c 3.625,-14.496 -5.5664,-28.98 -19.789,-32.605 l -78.59,-18.949 c -14.773,-3.3359 -29.258,5.293 -32.605,19.789 l -66.043,273.38 c -3.625,14.496 5.293,28.98 19.789,32.605 l 78.863,18.949 c 14.219,3.625 28.98,-5.293 32.328,-19.789 z"
       id="path3581"
       style="stroke-width:4.4;stroke-miterlimit:4;stroke-dasharray:none;stroke:#7d7d7d;stroke-opacity:1" />
  </g>
  <g
     inkscape:groupmode="layer"
     id="layer2"
     inkscape:label="Background Hiker">
    <path
       d="m571.36 209.89c17.23-12.059 38.195-20.102 60.875-18.383 30.156 2.5781 54.84 20.965 69.48 43.645l87.875 174.3 119.75 82.414c10.332 7.7539 16.367 20.676 15.504 34.176-1.7266 21.816-20.676 37.906-42.492 36.18-6.3242-0.57422-11.496-2.8672-17.809-5.7461l-130.66-90.168c-4.0195-3.1562-7.4648-7.1758-9.7578-11.484l-33.023-65.184-39.336 173.73 154.49 182.34c3.168 5.7461 5.7461 12.059 6.8867 18.672l41.93 220.52c-0.28906 4.8828 0.5625 7.7539 0.27734 12.07-2.5781 32.438-31.008 56.566-63.457 53.977-26.711-2.0039-46.801-22.105-53.125-46.523l-39.637-206.46-125.19-137.54-29.281 133.81c-0.85156 6.3125-9.1914 19.523-11.773 24.984l-120.32 203.01c-12.059 18.66-32.16 30.445-55.129 28.715-32.449-2.5781-56.855-31.008-54.266-63.457 0.57422-9.1914 4.5977-18.672 8.0391-25.273l112-188.09 93.035-413.5-60.875 49.105-32.16 147.6c-4.3086 18.66-21.539 34.176-41.93 32.449-21.828-1.7266-37.906-20.387-36.18-42.215 0.28906-1.7266 0.28906-3.4453 0.86328-5.1719l38.484-172c2.0039-7.4648 6.3125-14.074 12.059-18.961z"
       id="path3685"
       style="stroke:#7d7d7d;stroke-width:4.3;stroke-miterlimit:4;stroke-dasharray:none;stroke-opacity:1" />
    <a
       id="a3931"
       style="stroke:#7d7d7d;stroke-opacity:1;stroke-width:4;stroke-miterlimit:4;stroke-dasharray:none">
      <path
         d="m645.15 174c47.965 3.7305 89.879-32.16 93.625-79.836 3.7305-48.238-32.172-89.879-80.125-93.898-47.664-3.7305-89.594 32.16-93.613 80.113-3.7305 47.949 32.164 89.879 80.113 93.621z"
         id="path3683"
         style="stroke:#7d7d7d;stroke-opacity:1;stroke-width:4;stroke-miterlimit:4;stroke-dasharray:none" />
    </a>
  </g>
</svg>
